<?xml version="1.0" encoding="UTF-8"?><svg xmlns="http://www.w3.org/2000/svg" viewBox="0 0 565.89 179.01"><defs><style>.j{fill:#00aeef;}.k{fill:#1c1c1c;}</style></defs><g id="a"/><g id="b"><g><g><path class="k" d="M103.5,101.3c0,6.25-2.09,10.92-6.21,13.88-3.86,2.77-9.49,4.18-16.73,4.18-3.75,0-8.78-.44-14.94-1.32l-3.1-.42c-1.39-.19-2.37-1.47-2.2-2.86l.42-3.54c.09-.69,.45-1.32,1.01-1.74,.56-.42,1.26-.6,1.95-.49,7.55,1.19,13.61,1.8,18.04,1.8,4.06,0,7.31-.77,9.65-2.28,2.02-1.29,3-3.56,3-6.95,0-2.28-.36-5.22-2.06-6.29-1.29-.8-4.49-2.01-12.43-3.23-7.2-1.1-12.15-2.6-15.13-4.58-3.4-2.25-5.12-5.95-5.12-10.99,0-4.76,1.19-8.55,3.52-11.27,2.25-2.63,4.94-4.41,7.99-5.3,2.8-.82,5.74-1.23,8.76-1.23,5.9,0,11.51,.41,16.69,1.21l2.79,.43c1.31,.2,2.26,1.37,2.18,2.7l-.22,3.54c-.04,.72-.39,1.39-.96,1.85-.56,.46-1.29,.65-2.01,.54-7.14-1.11-13.13-1.68-17.83-1.68-10.45,0-11.79,4.36-11.79,8.15s1.43,4.69,1.9,5.02c.94,.65,3.78,1.95,12.22,3.27,7.29,1.14,12.33,2.67,15.39,4.68,3.47,2.29,5.23,6.64,5.23,12.93Z"/><path class="k" d="M176.89,66.37c-3.39-5.11-8.82-7.69-16.14-7.69-3.1,0-6.67,.62-10.62,1.83-2.01,.62-3.79,1.26-5.35,1.95v-.24c0-1.42-1.15-2.57-2.57-2.57h-3.75c-1.42,0-2.57,1.15-2.57,2.57v78.27c0,1.42,1.15,2.57,2.57,2.57h3.75c1.42,0,2.57-1.15,2.57-2.57v-22.08c3.77,.64,7.65,.96,11.58,.96,9.02,0,15.61-2.61,19.57-7.76,3.85-5.01,5.73-12.47,5.73-22.8s-1.56-17.6-4.77-22.44Zm-8.08,39.73c-2.33,3.16-6.4,4.69-12.46,4.69-3.26,0-7.14-.37-11.58-1.1v-37.8l1.22-.66c1.56-.85,3.84-1.74,6.77-2.65,2.85-.88,5.53-1.33,7.98-1.33,3.9,0,6.72,1.41,8.63,4.31,2.1,3.2,3.17,8.98,3.17,17.19s-1.25,13.98-3.73,17.34Z"/><path class="k" d="M262.46,110.79c-3.35-.28-5.45-1.07-5.69-2.13v-30.69c0-6.23-1.55-11.04-4.6-14.3-3.1-3.32-7.69-4.99-13.62-4.99s-12.89,.66-21,1.96c-1.33,.21-2.28,1.43-2.15,2.77l.32,3.54c.06,.7,.41,1.34,.95,1.77,.55,.44,1.25,.64,1.94,.55l3.32-.43c7.08-.91,12.68-1.37,16.61-1.37,3.25,0,5.63,.77,7.08,2.3,1.49,1.57,2.24,4.33,2.24,8.2v3.26l-18.06,1.9c-5.77,.56-10.11,2.39-12.89,5.43-2.8,3.05-4.22,7.41-4.22,12.94s1.48,9.94,4.39,13.07c2.96,3.17,7.08,4.78,12.23,4.78,6.89,0,13.92-1.38,20.91-4.11,2.7,2.66,6.66,4,11.79,4,1.35,0,2.48-1.05,2.57-2.4l.21-3.33c.09-1.4-.96-2.61-2.35-2.73Zm-14.59-3.64l-1.29,.46c-1.88,.67-4.55,1.38-7.93,2.11-3.31,.7-6.48,1.07-9.43,1.07-2.36,0-4.12-.73-5.36-2.24-1.35-1.62-2.04-4.08-2.04-7.31s.65-5.54,1.92-6.98c1.27-1.43,3.64-2.33,7.03-2.69l17.11-1.75v17.32Z"/><path class="k" d="M332.69,115.66c.08,1.38-.93,2.57-2.29,2.72-6.15,.66-10.52,.98-13.36,.98-9.55,0-16.15-2.43-19.62-7.23-3.32-4.6-4.93-12.25-4.93-23.38s1.81-18.81,5.53-23.26c3.79-4.53,10.19-6.82,19.02-6.82,.07,0,.15,0,.21,0l12.87,1.07c1.39,.12,2.44,1.33,2.35,2.72l-.21,3.43c-.04,.7-.38,1.36-.92,1.82-.55,.45-1.26,.66-1.96,.57-5.6-.7-9.75-1.05-12.33-1.05-5.91,0-9.97,1.39-12.05,4.13-1.55,2.03-3.39,6.67-3.39,17.26,0,8.57,1.05,14.57,3.13,17.8,1.84,2.86,5.94,4.32,12.21,4.34l12.77-.96c.69-.05,1.37,.17,1.89,.63,.51,.45,.83,1.1,.87,1.78l.22,3.43Z"/><path class="k" d="M405.44,65.71c-3.89-4.67-9.7-7.04-17.26-7.04-8.02,0-14.17,2.67-18.27,7.93-3.95,5.07-5.96,12.61-5.96,22.41s1.57,17.25,4.8,22.25c3.42,5.29,9.44,8.02,17.9,8.09h.03c5.26,0,12-.32,20.04-.97,1.4-.11,2.44-1.33,2.36-2.72l-.22-3.43c-.04-.68-.35-1.32-.87-1.77-.51-.45-1.19-.68-1.87-.63l-3.22,.21s-.04,0-.06,0c-5.46,.49-11.05,.74-16.6,.74-4.76,0-8.02-1.46-9.96-4.46-1.88-2.9-2.95-7.34-3.18-13.23h35.44c1.42,0,2.57-1.15,2.57-2.57v-3.54c0-9.72-1.86-16.67-5.69-21.27Zm-32.31,18.8c.8-15.4,8.89-17.26,15.05-17.26,4.91,0,8.33,1.35,10.44,4.13,1.98,2.6,3.1,7.01,3.34,13.13h-28.84Z"/></g><path class="j" d="M477.18,98.3l27.78-16.04c.8-.46,1.29-1.31,1.29-2.23v-7.02c0-.92-.49-1.77-1.29-2.23l-27.25-15.74c-.8-.46-1.78-.46-2.57,0l-27.26,15.74c-.8,.46-1.29,1.31-1.29,2.23v31.47c0,.92,.49,1.77,1.29,2.23l27.26,15.74c.8,.46,1.78,.46,2.57,0l27.25-15.74c.8-.46,1.29-1.31,1.29-2.23v-6.01c0-1.53-1.66-2.48-2.98-1.72l-26.85,15.5-20.11-11.61v-13.52l19.34,11.17c.47,.27,1.05,.27,1.53,0Zm19.14-21.77l-19.9,11.49-19.9-11.49,19.9-11.49,19.9,11.49Z"/></g></g><g id="c"/><g id="d"/><g id="e"/><g id="f"/><g id="g"/><g id="h"/><g id="i"/></svg>